<svg xmlns="http://www.w3.org/2000/svg" width="14.6300048828125" height="14"
     viewBox="0 0 14.6300048828125 14" fill="none">
    <path d="M0 7C0 10.87 3.27 14 7.31 14C11.35 14 14.63 10.87 14.63 7C14.63 3.13 11.35 0 7.31 0C3.27 0 0 3.13 0 7ZM6.8564 3.063C6.8564 3.305 7.0604 3.5 7.3134 3.5C7.5664 3.5 7.7704 3.305 7.7704 3.063C7.7704 2.82 7.5664 2.625 7.3134 2.625C7.0604 2.625 6.8564 2.82 6.8564 3.063ZM5.938 6.0958C5.678 6.0958 5.478 5.8958 5.478 5.6558C5.478 5.4158 5.678 5.2158 5.938 5.2158L7.288 5.2158C7.548 5.2158 7.748 5.4158 7.748 5.6558L7.748 10.4958L8.678 10.4958C8.928 10.4958 9.148 10.6958 9.148 10.9358C9.148 11.1758 8.928 11.3758 8.678 11.3758L5.948 11.3758C5.698 11.3758 5.488 11.1758 5.488 10.9358C5.488 10.6958 5.698 10.4958 5.948 10.4958L6.838 10.4958L6.838 6.0958L5.938 6.0958Z"
          fill-rule="evenodd" fill="#2260F2"></path>
</svg>